SRRun01_grf
version=1
nRows=18
nColumns=19
inDegrees=no
endheader
time	ground_force_r_vx	ground_force_r_vy	ground_force_r_vz	ground_force_r_px	ground_force_r_py	ground_force_r_pz	ground_force_r_mx	ground_force_r_my	ground_force_r_mz	ground_force_l_vx	ground_force_l_vy	ground_force_l_vz	ground_force_l_px	ground_force_l_py	ground_force_l_pz	ground_force_l_mx	ground_force_l_my	ground_force_l_mz
    144.99800000	      0.00000000	      0.00000000	      0.00000000	      0.00000000	      0.00000000	      0.00000000	      0.00000000	      0.00000000	      0.00000000	    -39.83656621	   1675.31232459	     76.62592601	      0.90491157	      0.00000000	     -0.31987189	      0.00001999	     23.34570269	      0.00005995
    144.99900000	      0.00000000	      0.00000000	      0.00000000	      0.00000000	      0.00000000	      0.00000000	      0.00000000	      0.00000000	      0.00000000	    -32.10482615	   1663.46711979	     86.80519177	      0.90197564	      0.00000000	     -0.31973038	      0.00002070	     24.56357040	      0.00006003
    145.00000000	      0.00000000	      0.00000000	      0.00000000	      0.00000000	      0.00000000	      0.00000000	      0.00000000	      0.00000000	      0.00000000	    -22.77557616	   1651.97285608	     94.00090609	      0.89913552	      0.00000000	     -0.31968151	      0.00002150	     23.93950991	      0.00006038
    145.00100000	      0.00000000	      0.00000000	      0.00000000	      0.00000000	      0.00000000	      0.00000000	      0.00000000	      0.00000000	      0.00000000	    -12.42705714	   1640.99504387	     97.84231011	      0.89641649	      0.00000000	     -0.31972988	      0.00002232	     21.53653755	      0.00006091
    145.00200000	      0.00000000	      0.00000000	      0.00000000	      0.00000000	      0.00000000	      0.00000000	      0.00000000	      0.00000000	      0.00000000	     -1.69176848	   1630.65591633	     98.17589834	      0.89383272	      0.00000000	     -0.31987352	      0.00002309	     17.54626642	      0.00006151
    145.00300000	      0.00000000	      0.00000000	      0.00000000	      0.00000000	      0.00000000	      0.00000000	      0.00000000	      0.00000000	      0.00000000	      8.81370148	   1621.02855625	     95.07197608	      0.89138675	      0.00000000	     -0.32010376	      0.00002375	     12.27398842	      0.00006206
    145.00400000	      0.00000000	      0.00000000	      0.00000000	      0.00000000	      0.00000000	      0.00000000	      0.00000000	      0.00000000	      0.00000000	     18.55335316	   1612.13410287	     88.81742777	      0.88907014	      0.00000000	     -0.32040543	      0.00002424	      6.11583707	      0.00006246
    145.00500000	      0.00000000	      0.00000000	      0.00000000	      0.00000000	      0.00000000	      0.00000000	      0.00000000	      0.00000000	      0.00000000	     27.12411560	   1603.94182035	     79.89483664	      0.88686476	      0.00000000	     -0.32075740	      0.00002452	     -0.47032383	      0.00006263
    145.00600000	      0.00000000	      0.00000000	      0.00000000	      0.00000000	      0.00000000	      0.00000000	      0.00000000	      0.00000000	      0.00000000	     34.29070814	   1596.37202349	     68.94886894	      0.88474473	      0.00000000	     -0.32113373	      0.00002458	     -6.99834107	      0.00006250
    145.00700000	      0.00000000	      0.00000000	      0.00000000	      0.00000000	      0.00000000	      0.00000000	      0.00000000	      0.00000000	      0.00000000	     40.00011322	   1589.30211427	     56.74170854	      0.88267865	      0.00000000	     -0.32150527	      0.00002439	    -12.98934943	      0.00006205
    145.00800000	      0.00000000	      0.00000000	      0.00000000	      0.00000000	      0.00000000	      0.00000000	      0.00000000	      0.00000000	      0.00000000	     44.37513667	   1582.57578046	     44.10021708	      0.88063218	      0.00000000	     -0.32184166	      0.00002398	    -18.00706730	      0.00006129
    145.00900000	      0.00000000	      0.00000000	      0.00000000	      0.00000000	      0.00000000	      0.00000000	      0.00000000	      0.00000000	      0.00000000	     47.68880020	   1576.01472311	     31.85829546	      0.87857054	      0.00000000	     -0.32211356	      0.00002336	    -21.69029470	      0.00006025
    145.01000000	      0.00000000	      0.00000000	      0.00000000	      0.00000000	      0.00000000	      0.00000000	      0.00000000	      0.00000000	      0.00000000	     50.32330821	   1569.43161225	     20.79847408	      0.87646075	      0.00000000	     -0.32229495	      0.00002257	    -23.78020484	      0.00005899
    145.01100000	      0.00000000	      0.00000000	      0.00000000	      0.00000000	      0.00000000	      0.00000000	      0.00000000	      0.00000000	      0.00000000	     52.71889008	   1562.64272993	     11.59694007	      0.87427337	      0.00000000	     -0.32236521	      0.00002166	    -24.14030251	      0.00005761
    145.01200000	      0.00000000	      0.00000000	      0.00000000	      0.00000000	      0.00000000	      0.00000000	      0.00000000	      0.00000000	      0.00000000	     55.31868722	   1555.47894220	      4.77604474	      0.87198373	      0.00000000	     -0.32231097	      0.00002071	    -22.76733243	      0.00005620
    145.01300000	      0.00000000	      0.00000000	      0.00000000	      0.00000000	      0.00000000	      0.00000000	      0.00000000	      0.00000000	      0.00000000	     58.51592124	   1547.79408000	      0.66790097	      0.86957271	      0.00000000	     -0.32212743	      0.00001979	    -19.79197028	      0.00005484
    145.01400000	      0.00000000	      0.00000000	      0.00000000	      0.00000000	      0.00000000	      0.00000000	      0.00000000	      0.00000000	      0.00000000	     62.60899441	   1539.47036377	     -0.60800844	      0.86702714	      0.00000000	     -0.32181915	      0.00001898	    -15.46884309	      0.00005362
    145.01500000	      0.00000000	      0.00000000	      0.00000000	      0.00000000	      0.00000000	      0.00000000	      0.00000000	      0.00000000	      0.00000000	     67.76913095	   1530.42107647	      0.84873922	      0.86433981	      0.00000000	     -0.32140006	      0.00001837	    -10.15628531	      0.00005262
